<mxfile host="app.diagrams.net" modified="2024-05-16T16:42:25.402Z" agent="Mozilla/5.0 (Windows NT 10.0; Win64; x64) AppleWebKit/537.36 (KHTML, like Gecko) Chrome/124.0.0.0 Safari/537.36 Edg/124.0.0.0" etag="XHFBWz1JCwc3IYlPr74O" version="24.4.2" type="device">
  <diagram name="第 1 页" id="zPabMOg1lOUqDmpHB40u">
    <mxGraphModel dx="5074" dy="813" grid="1" gridSize="10" guides="1" tooltips="1" connect="1" arrows="1" fold="1" page="1" pageScale="1" pageWidth="3300" pageHeight="4681" math="0" shadow="0">
      <root>
        <mxCell id="0" />
        <mxCell id="1" parent="0" />
        <mxCell id="m-pZPB-WIuNykrsNQO8W-1" value="用户" style="rounded=0;whiteSpace=wrap;html=1;" vertex="1" parent="1">
          <mxGeometry y="20" width="80" height="40" as="geometry" />
        </mxCell>
        <mxCell id="m-pZPB-WIuNykrsNQO8W-3" value="订单" style="rounded=0;whiteSpace=wrap;html=1;" vertex="1" parent="1">
          <mxGeometry x="260" y="250" width="80" height="40" as="geometry" />
        </mxCell>
        <mxCell id="m-pZPB-WIuNykrsNQO8W-4" value="" style="endArrow=none;html=1;rounded=0;entryX=0.5;entryY=1;entryDx=0;entryDy=0;exitX=0.5;exitY=0;exitDx=0;exitDy=0;" edge="1" parent="1" source="m-pZPB-WIuNykrsNQO8W-5" target="m-pZPB-WIuNykrsNQO8W-1">
          <mxGeometry width="50" height="50" relative="1" as="geometry">
            <mxPoint x="240" y="140" as="sourcePoint" />
            <mxPoint x="240" y="130" as="targetPoint" />
          </mxGeometry>
        </mxCell>
        <mxCell id="m-pZPB-WIuNykrsNQO8W-7" value="1" style="edgeLabel;html=1;align=center;verticalAlign=middle;resizable=0;points=[];" vertex="1" connectable="0" parent="m-pZPB-WIuNykrsNQO8W-4">
          <mxGeometry x="-0.3333" relative="1" as="geometry">
            <mxPoint as="offset" />
          </mxGeometry>
        </mxCell>
        <mxCell id="m-pZPB-WIuNykrsNQO8W-5" value="发起" style="rhombus;whiteSpace=wrap;html=1;" vertex="1" parent="1">
          <mxGeometry x="210" y="160" width="80" height="40" as="geometry" />
        </mxCell>
        <mxCell id="m-pZPB-WIuNykrsNQO8W-6" value="" style="endArrow=none;html=1;rounded=0;exitX=0.5;exitY=0;exitDx=0;exitDy=0;entryX=0.5;entryY=1;entryDx=0;entryDy=0;" edge="1" parent="1" source="m-pZPB-WIuNykrsNQO8W-3" target="m-pZPB-WIuNykrsNQO8W-5">
          <mxGeometry width="50" height="50" relative="1" as="geometry">
            <mxPoint x="250" y="230" as="sourcePoint" />
            <mxPoint x="300" y="180" as="targetPoint" />
          </mxGeometry>
        </mxCell>
        <mxCell id="m-pZPB-WIuNykrsNQO8W-8" value="N" style="edgeLabel;html=1;align=center;verticalAlign=middle;resizable=0;points=[];" vertex="1" connectable="0" parent="m-pZPB-WIuNykrsNQO8W-6">
          <mxGeometry x="0.1333" relative="1" as="geometry">
            <mxPoint as="offset" />
          </mxGeometry>
        </mxCell>
        <mxCell id="m-pZPB-WIuNykrsNQO8W-9" value="包含" style="rhombus;whiteSpace=wrap;html=1;" vertex="1" parent="1">
          <mxGeometry x="340" y="300" width="80" height="40" as="geometry" />
        </mxCell>
        <mxCell id="m-pZPB-WIuNykrsNQO8W-10" value="" style="endArrow=none;html=1;rounded=0;entryX=1;entryY=0.5;entryDx=0;entryDy=0;exitX=0.5;exitY=0;exitDx=0;exitDy=0;" edge="1" parent="1" source="m-pZPB-WIuNykrsNQO8W-9" target="m-pZPB-WIuNykrsNQO8W-3">
          <mxGeometry width="50" height="50" relative="1" as="geometry">
            <mxPoint x="180" y="310" as="sourcePoint" />
            <mxPoint x="230" y="260" as="targetPoint" />
          </mxGeometry>
        </mxCell>
        <mxCell id="m-pZPB-WIuNykrsNQO8W-12" value="M" style="edgeLabel;html=1;align=center;verticalAlign=middle;resizable=0;points=[];" vertex="1" connectable="0" parent="m-pZPB-WIuNykrsNQO8W-10">
          <mxGeometry x="-0.3333" y="1" relative="1" as="geometry">
            <mxPoint as="offset" />
          </mxGeometry>
        </mxCell>
        <mxCell id="m-pZPB-WIuNykrsNQO8W-11" value="" style="endArrow=none;html=1;rounded=0;entryX=0.5;entryY=1;entryDx=0;entryDy=0;exitX=0.5;exitY=0;exitDx=0;exitDy=0;" edge="1" parent="1" source="m-pZPB-WIuNykrsNQO8W-14" target="m-pZPB-WIuNykrsNQO8W-9">
          <mxGeometry width="50" height="50" relative="1" as="geometry">
            <mxPoint x="240" y="350" as="sourcePoint" />
            <mxPoint x="250" y="360" as="targetPoint" />
          </mxGeometry>
        </mxCell>
        <mxCell id="m-pZPB-WIuNykrsNQO8W-13" value="N" style="edgeLabel;html=1;align=center;verticalAlign=middle;resizable=0;points=[];" vertex="1" connectable="0" parent="m-pZPB-WIuNykrsNQO8W-11">
          <mxGeometry x="0.2" y="1" relative="1" as="geometry">
            <mxPoint as="offset" />
          </mxGeometry>
        </mxCell>
        <mxCell id="m-pZPB-WIuNykrsNQO8W-14" value="商品" style="rounded=0;whiteSpace=wrap;html=1;" vertex="1" parent="1">
          <mxGeometry x="390" y="390" width="80" height="40" as="geometry" />
        </mxCell>
        <mxCell id="m-pZPB-WIuNykrsNQO8W-16" value="" style="endArrow=none;html=1;rounded=0;entryX=0.5;entryY=0;entryDx=0;entryDy=0;exitX=1;exitY=0;exitDx=0;exitDy=0;" edge="1" parent="1" source="m-pZPB-WIuNykrsNQO8W-1" target="m-pZPB-WIuNykrsNQO8W-17">
          <mxGeometry width="50" height="50" relative="1" as="geometry">
            <mxPoint x="420" y="80" as="sourcePoint" />
            <mxPoint x="360" y="140" as="targetPoint" />
          </mxGeometry>
        </mxCell>
        <mxCell id="m-pZPB-WIuNykrsNQO8W-19" value="1" style="edgeLabel;html=1;align=center;verticalAlign=middle;resizable=0;points=[];" vertex="1" connectable="0" parent="m-pZPB-WIuNykrsNQO8W-16">
          <mxGeometry x="0.2098" y="-2" relative="1" as="geometry">
            <mxPoint as="offset" />
          </mxGeometry>
        </mxCell>
        <mxCell id="m-pZPB-WIuNykrsNQO8W-17" value="拥有" style="rhombus;whiteSpace=wrap;html=1;" vertex="1" parent="1">
          <mxGeometry x="560" y="40" width="80" height="40" as="geometry" />
        </mxCell>
        <mxCell id="m-pZPB-WIuNykrsNQO8W-20" value="" style="endArrow=none;html=1;rounded=0;entryX=0.5;entryY=1;entryDx=0;entryDy=0;exitX=0.5;exitY=0;exitDx=0;exitDy=0;" edge="1" parent="1" source="m-pZPB-WIuNykrsNQO8W-21" target="m-pZPB-WIuNykrsNQO8W-17">
          <mxGeometry width="50" height="50" relative="1" as="geometry">
            <mxPoint x="350" y="200" as="sourcePoint" />
            <mxPoint x="370" y="250" as="targetPoint" />
          </mxGeometry>
        </mxCell>
        <mxCell id="m-pZPB-WIuNykrsNQO8W-22" value="1" style="edgeLabel;html=1;align=center;verticalAlign=middle;resizable=0;points=[];" vertex="1" connectable="0" parent="m-pZPB-WIuNykrsNQO8W-20">
          <mxGeometry y="1" relative="1" as="geometry">
            <mxPoint as="offset" />
          </mxGeometry>
        </mxCell>
        <mxCell id="m-pZPB-WIuNykrsNQO8W-21" value="购物车" style="rounded=0;whiteSpace=wrap;html=1;" vertex="1" parent="1">
          <mxGeometry x="490" y="240" width="80" height="40" as="geometry" />
        </mxCell>
        <mxCell id="m-pZPB-WIuNykrsNQO8W-23" value="" style="endArrow=none;html=1;rounded=0;entryX=0.5;entryY=1;entryDx=0;entryDy=0;exitX=0.5;exitY=0;exitDx=0;exitDy=0;" edge="1" parent="1" source="m-pZPB-WIuNykrsNQO8W-25" target="m-pZPB-WIuNykrsNQO8W-21">
          <mxGeometry width="50" height="50" relative="1" as="geometry">
            <mxPoint x="350" y="280" as="sourcePoint" />
            <mxPoint x="350" y="280" as="targetPoint" />
          </mxGeometry>
        </mxCell>
        <mxCell id="m-pZPB-WIuNykrsNQO8W-24" value="M" style="edgeLabel;html=1;align=center;verticalAlign=middle;resizable=0;points=[];" vertex="1" connectable="0" parent="m-pZPB-WIuNykrsNQO8W-23">
          <mxGeometry x="-0.2" y="-3" relative="1" as="geometry">
            <mxPoint as="offset" />
          </mxGeometry>
        </mxCell>
        <mxCell id="m-pZPB-WIuNykrsNQO8W-25" value="包含" style="rhombus;whiteSpace=wrap;html=1;" vertex="1" parent="1">
          <mxGeometry x="450" y="300" width="80" height="40" as="geometry" />
        </mxCell>
        <mxCell id="m-pZPB-WIuNykrsNQO8W-26" value="" style="endArrow=none;html=1;rounded=0;exitX=0.5;exitY=0;exitDx=0;exitDy=0;entryX=0.5;entryY=1;entryDx=0;entryDy=0;" edge="1" parent="1" source="m-pZPB-WIuNykrsNQO8W-14" target="m-pZPB-WIuNykrsNQO8W-25">
          <mxGeometry width="50" height="50" relative="1" as="geometry">
            <mxPoint x="390" y="420" as="sourcePoint" />
            <mxPoint x="440" y="370" as="targetPoint" />
          </mxGeometry>
        </mxCell>
        <mxCell id="m-pZPB-WIuNykrsNQO8W-27" value="N" style="edgeLabel;html=1;align=center;verticalAlign=middle;resizable=0;points=[];" vertex="1" connectable="0" parent="m-pZPB-WIuNykrsNQO8W-26">
          <mxGeometry x="0.248" y="-1" relative="1" as="geometry">
            <mxPoint as="offset" />
          </mxGeometry>
        </mxCell>
        <mxCell id="m-pZPB-WIuNykrsNQO8W-30" value="" style="endArrow=none;html=1;rounded=0;entryX=0;entryY=0.5;entryDx=0;entryDy=0;exitX=1;exitY=0.5;exitDx=0;exitDy=0;" edge="1" parent="1" source="m-pZPB-WIuNykrsNQO8W-32" target="m-pZPB-WIuNykrsNQO8W-3">
          <mxGeometry width="50" height="50" relative="1" as="geometry">
            <mxPoint x="240" y="320" as="sourcePoint" />
            <mxPoint x="120" y="310" as="targetPoint" />
          </mxGeometry>
        </mxCell>
        <mxCell id="m-pZPB-WIuNykrsNQO8W-41" value="1" style="edgeLabel;html=1;align=center;verticalAlign=middle;resizable=0;points=[];" vertex="1" connectable="0" parent="m-pZPB-WIuNykrsNQO8W-30">
          <mxGeometry x="-0.26" y="-3" relative="1" as="geometry">
            <mxPoint as="offset" />
          </mxGeometry>
        </mxCell>
        <mxCell id="m-pZPB-WIuNykrsNQO8W-31" value="评价" style="rounded=0;whiteSpace=wrap;html=1;" vertex="1" parent="1">
          <mxGeometry x="60" y="350" width="80" height="40" as="geometry" />
        </mxCell>
        <mxCell id="m-pZPB-WIuNykrsNQO8W-32" value="包含" style="rhombus;whiteSpace=wrap;html=1;" vertex="1" parent="1">
          <mxGeometry x="130" y="250" width="80" height="40" as="geometry" />
        </mxCell>
        <mxCell id="m-pZPB-WIuNykrsNQO8W-33" value="" style="endArrow=none;html=1;rounded=0;entryX=0.5;entryY=1;entryDx=0;entryDy=0;exitX=1;exitY=0.5;exitDx=0;exitDy=0;" edge="1" parent="1" source="m-pZPB-WIuNykrsNQO8W-31" target="m-pZPB-WIuNykrsNQO8W-32">
          <mxGeometry width="50" height="50" relative="1" as="geometry">
            <mxPoint x="110" y="440" as="sourcePoint" />
            <mxPoint x="160" y="390" as="targetPoint" />
          </mxGeometry>
        </mxCell>
        <mxCell id="m-pZPB-WIuNykrsNQO8W-42" value="1" style="edgeLabel;html=1;align=center;verticalAlign=middle;resizable=0;points=[];" vertex="1" connectable="0" parent="m-pZPB-WIuNykrsNQO8W-33">
          <mxGeometry x="-0.01" y="1" relative="1" as="geometry">
            <mxPoint as="offset" />
          </mxGeometry>
        </mxCell>
        <mxCell id="m-pZPB-WIuNykrsNQO8W-34" value="" style="endArrow=none;html=1;rounded=0;exitX=1;exitY=0.5;exitDx=0;exitDy=0;entryX=0;entryY=0.5;entryDx=0;entryDy=0;" edge="1" parent="1" source="m-pZPB-WIuNykrsNQO8W-1" target="m-pZPB-WIuNykrsNQO8W-35">
          <mxGeometry width="50" height="50" relative="1" as="geometry">
            <mxPoint x="490" y="100" as="sourcePoint" />
            <mxPoint x="570" y="130" as="targetPoint" />
          </mxGeometry>
        </mxCell>
        <mxCell id="m-pZPB-WIuNykrsNQO8W-36" value="1" style="edgeLabel;html=1;align=center;verticalAlign=middle;resizable=0;points=[];" vertex="1" connectable="0" parent="m-pZPB-WIuNykrsNQO8W-34">
          <mxGeometry x="0.4523" y="2" relative="1" as="geometry">
            <mxPoint as="offset" />
          </mxGeometry>
        </mxCell>
        <mxCell id="m-pZPB-WIuNykrsNQO8W-35" value="拥有" style="rhombus;whiteSpace=wrap;html=1;" vertex="1" parent="1">
          <mxGeometry x="240" y="90" width="80" height="40" as="geometry" />
        </mxCell>
        <mxCell id="m-pZPB-WIuNykrsNQO8W-37" value="" style="endArrow=none;html=1;rounded=0;entryX=1;entryY=0.5;entryDx=0;entryDy=0;exitX=0;exitY=0.5;exitDx=0;exitDy=0;" edge="1" parent="1" source="m-pZPB-WIuNykrsNQO8W-39" target="m-pZPB-WIuNykrsNQO8W-35">
          <mxGeometry width="50" height="50" relative="1" as="geometry">
            <mxPoint x="550" y="190" as="sourcePoint" />
            <mxPoint x="550" y="200" as="targetPoint" />
          </mxGeometry>
        </mxCell>
        <mxCell id="m-pZPB-WIuNykrsNQO8W-38" value="N" style="edgeLabel;html=1;align=center;verticalAlign=middle;resizable=0;points=[];" vertex="1" connectable="0" parent="m-pZPB-WIuNykrsNQO8W-37">
          <mxGeometry x="0.24" y="-4" relative="1" as="geometry">
            <mxPoint as="offset" />
          </mxGeometry>
        </mxCell>
        <mxCell id="m-pZPB-WIuNykrsNQO8W-39" value="收货信息" style="rounded=0;whiteSpace=wrap;html=1;" vertex="1" parent="1">
          <mxGeometry x="360" y="100" width="80" height="40" as="geometry" />
        </mxCell>
        <mxCell id="m-pZPB-WIuNykrsNQO8W-62" value="" style="endArrow=none;html=1;rounded=0;exitX=1;exitY=0.5;exitDx=0;exitDy=0;entryX=0;entryY=0.5;entryDx=0;entryDy=0;" edge="1" parent="1" source="m-pZPB-WIuNykrsNQO8W-1" target="m-pZPB-WIuNykrsNQO8W-64">
          <mxGeometry width="50" height="50" relative="1" as="geometry">
            <mxPoint x="210" y="50" as="sourcePoint" />
            <mxPoint x="270" y="30" as="targetPoint" />
          </mxGeometry>
        </mxCell>
        <mxCell id="m-pZPB-WIuNykrsNQO8W-71" value="1" style="edgeLabel;html=1;align=center;verticalAlign=middle;resizable=0;points=[];" vertex="1" connectable="0" parent="m-pZPB-WIuNykrsNQO8W-62">
          <mxGeometry x="0.2242" relative="1" as="geometry">
            <mxPoint as="offset" />
          </mxGeometry>
        </mxCell>
        <mxCell id="m-pZPB-WIuNykrsNQO8W-64" value="拥有" style="rhombus;whiteSpace=wrap;html=1;" vertex="1" parent="1">
          <mxGeometry x="280" y="50" width="80" height="40" as="geometry" />
        </mxCell>
        <mxCell id="m-pZPB-WIuNykrsNQO8W-65" value="" style="endArrow=none;html=1;rounded=0;exitX=1;exitY=0.5;exitDx=0;exitDy=0;entryX=0;entryY=0.5;entryDx=0;entryDy=0;" edge="1" parent="1" source="m-pZPB-WIuNykrsNQO8W-64" target="m-pZPB-WIuNykrsNQO8W-67">
          <mxGeometry width="50" height="50" relative="1" as="geometry">
            <mxPoint x="430" y="60" as="sourcePoint" />
            <mxPoint x="450" y="20" as="targetPoint" />
          </mxGeometry>
        </mxCell>
        <mxCell id="m-pZPB-WIuNykrsNQO8W-72" value="N" style="edgeLabel;html=1;align=center;verticalAlign=middle;resizable=0;points=[];" vertex="1" connectable="0" parent="m-pZPB-WIuNykrsNQO8W-65">
          <mxGeometry x="-0.1472" y="-1" relative="1" as="geometry">
            <mxPoint x="1" as="offset" />
          </mxGeometry>
        </mxCell>
        <mxCell id="m-pZPB-WIuNykrsNQO8W-67" value="支付" style="rounded=0;whiteSpace=wrap;html=1;" vertex="1" parent="1">
          <mxGeometry x="470" y="70" width="80" height="40" as="geometry" />
        </mxCell>
        <mxCell id="m-pZPB-WIuNykrsNQO8W-73" value="" style="endArrow=none;html=1;rounded=0;exitX=0.5;exitY=0;exitDx=0;exitDy=0;entryX=0.5;entryY=1;entryDx=0;entryDy=0;" edge="1" parent="1" source="m-pZPB-WIuNykrsNQO8W-3" target="m-pZPB-WIuNykrsNQO8W-74">
          <mxGeometry width="50" height="50" relative="1" as="geometry">
            <mxPoint x="320" y="220" as="sourcePoint" />
            <mxPoint x="340" y="200" as="targetPoint" />
          </mxGeometry>
        </mxCell>
        <mxCell id="m-pZPB-WIuNykrsNQO8W-79" value="N" style="edgeLabel;html=1;align=center;verticalAlign=middle;resizable=0;points=[];" vertex="1" connectable="0" parent="m-pZPB-WIuNykrsNQO8W-73">
          <mxGeometry x="0.1893" y="4" relative="1" as="geometry">
            <mxPoint x="-1" as="offset" />
          </mxGeometry>
        </mxCell>
        <mxCell id="m-pZPB-WIuNykrsNQO8W-74" value="被使用" style="rhombus;whiteSpace=wrap;html=1;" vertex="1" parent="1">
          <mxGeometry x="310" y="160" width="80" height="40" as="geometry" />
        </mxCell>
        <mxCell id="m-pZPB-WIuNykrsNQO8W-75" value="" style="endArrow=none;html=1;rounded=0;exitX=0.5;exitY=0;exitDx=0;exitDy=0;entryX=0.5;entryY=1;entryDx=0;entryDy=0;" edge="1" parent="1" source="m-pZPB-WIuNykrsNQO8W-74" target="m-pZPB-WIuNykrsNQO8W-39">
          <mxGeometry width="50" height="50" relative="1" as="geometry">
            <mxPoint x="420" y="210" as="sourcePoint" />
            <mxPoint x="470" y="160" as="targetPoint" />
          </mxGeometry>
        </mxCell>
        <mxCell id="m-pZPB-WIuNykrsNQO8W-80" value="1" style="edgeLabel;html=1;align=center;verticalAlign=middle;resizable=0;points=[];" vertex="1" connectable="0" parent="m-pZPB-WIuNykrsNQO8W-75">
          <mxGeometry x="0.0648" y="-1" relative="1" as="geometry">
            <mxPoint as="offset" />
          </mxGeometry>
        </mxCell>
        <mxCell id="m-pZPB-WIuNykrsNQO8W-76" value="" style="endArrow=none;html=1;rounded=0;exitX=0.5;exitY=0;exitDx=0;exitDy=0;entryX=0.5;entryY=1;entryDx=0;entryDy=0;" edge="1" parent="1" source="m-pZPB-WIuNykrsNQO8W-3" target="m-pZPB-WIuNykrsNQO8W-77">
          <mxGeometry width="50" height="50" relative="1" as="geometry">
            <mxPoint x="440" y="250" as="sourcePoint" />
            <mxPoint x="410" y="220" as="targetPoint" />
          </mxGeometry>
        </mxCell>
        <mxCell id="m-pZPB-WIuNykrsNQO8W-83" value="N" style="edgeLabel;html=1;align=center;verticalAlign=middle;resizable=0;points=[];" vertex="1" connectable="0" parent="m-pZPB-WIuNykrsNQO8W-76">
          <mxGeometry x="0.1857" y="-3" relative="1" as="geometry">
            <mxPoint x="1" y="-1" as="offset" />
          </mxGeometry>
        </mxCell>
        <mxCell id="m-pZPB-WIuNykrsNQO8W-77" value="被使用" style="rhombus;whiteSpace=wrap;html=1;" vertex="1" parent="1">
          <mxGeometry x="410" y="180" width="80" height="40" as="geometry" />
        </mxCell>
        <mxCell id="m-pZPB-WIuNykrsNQO8W-81" value="" style="endArrow=none;html=1;rounded=0;exitX=0.5;exitY=0;exitDx=0;exitDy=0;entryX=0.5;entryY=1;entryDx=0;entryDy=0;" edge="1" parent="1" source="m-pZPB-WIuNykrsNQO8W-77" target="m-pZPB-WIuNykrsNQO8W-67">
          <mxGeometry width="50" height="50" relative="1" as="geometry">
            <mxPoint x="480" y="170" as="sourcePoint" />
            <mxPoint x="530" y="120" as="targetPoint" />
          </mxGeometry>
        </mxCell>
        <mxCell id="m-pZPB-WIuNykrsNQO8W-82" value="1" style="edgeLabel;html=1;align=center;verticalAlign=middle;resizable=0;points=[];" vertex="1" connectable="0" parent="m-pZPB-WIuNykrsNQO8W-81">
          <mxGeometry x="-0.037" y="-6" relative="1" as="geometry">
            <mxPoint as="offset" />
          </mxGeometry>
        </mxCell>
        <mxCell id="m-pZPB-WIuNykrsNQO8W-86" value="" style="endArrow=none;html=1;rounded=0;entryX=0.5;entryY=1;entryDx=0;entryDy=0;exitX=0.5;exitY=0;exitDx=0;exitDy=0;" edge="1" parent="1" source="m-pZPB-WIuNykrsNQO8W-87" target="m-pZPB-WIuNykrsNQO8W-3">
          <mxGeometry width="50" height="50" relative="1" as="geometry">
            <mxPoint x="190" y="360" as="sourcePoint" />
            <mxPoint x="260" y="330" as="targetPoint" />
          </mxGeometry>
        </mxCell>
        <mxCell id="m-pZPB-WIuNykrsNQO8W-95" value="0...1" style="edgeLabel;html=1;align=center;verticalAlign=middle;resizable=0;points=[];" vertex="1" connectable="0" parent="m-pZPB-WIuNykrsNQO8W-86">
          <mxGeometry x="-0.012" relative="1" as="geometry">
            <mxPoint as="offset" />
          </mxGeometry>
        </mxCell>
        <mxCell id="m-pZPB-WIuNykrsNQO8W-87" value="包含" style="rhombus;whiteSpace=wrap;html=1;" vertex="1" parent="1">
          <mxGeometry x="130" y="400" width="80" height="40" as="geometry" />
        </mxCell>
        <mxCell id="m-pZPB-WIuNykrsNQO8W-88" value="" style="endArrow=none;html=1;rounded=0;entryX=0;entryY=0.5;entryDx=0;entryDy=0;exitX=1;exitY=0.5;exitDx=0;exitDy=0;" edge="1" parent="1" source="m-pZPB-WIuNykrsNQO8W-89" target="m-pZPB-WIuNykrsNQO8W-87">
          <mxGeometry width="50" height="50" relative="1" as="geometry">
            <mxPoint x="150" y="510" as="sourcePoint" />
            <mxPoint x="130" y="510" as="targetPoint" />
          </mxGeometry>
        </mxCell>
        <mxCell id="m-pZPB-WIuNykrsNQO8W-96" value="1" style="edgeLabel;html=1;align=center;verticalAlign=middle;resizable=0;points=[];" vertex="1" connectable="0" parent="m-pZPB-WIuNykrsNQO8W-88">
          <mxGeometry x="0.3713" y="3" relative="1" as="geometry">
            <mxPoint x="1" as="offset" />
          </mxGeometry>
        </mxCell>
        <mxCell id="m-pZPB-WIuNykrsNQO8W-89" value="售后服务" style="rounded=0;whiteSpace=wrap;html=1;" vertex="1" parent="1">
          <mxGeometry x="-30" y="450" width="80" height="40" as="geometry" />
        </mxCell>
        <mxCell id="m-pZPB-WIuNykrsNQO8W-91" value="拥有" style="rhombus;whiteSpace=wrap;html=1;" vertex="1" parent="1">
          <mxGeometry x="260" y="360" width="80" height="40" as="geometry" />
        </mxCell>
        <mxCell id="m-pZPB-WIuNykrsNQO8W-93" value="" style="endArrow=none;html=1;rounded=0;entryX=0.5;entryY=1;entryDx=0;entryDy=0;exitX=0.5;exitY=0;exitDx=0;exitDy=0;" edge="1" parent="1" source="m-pZPB-WIuNykrsNQO8W-94" target="m-pZPB-WIuNykrsNQO8W-91">
          <mxGeometry width="50" height="50" relative="1" as="geometry">
            <mxPoint x="300" y="450" as="sourcePoint" />
            <mxPoint x="370" y="480" as="targetPoint" />
          </mxGeometry>
        </mxCell>
        <mxCell id="m-pZPB-WIuNykrsNQO8W-125" value="1" style="edgeLabel;html=1;align=center;verticalAlign=middle;resizable=0;points=[];" vertex="1" connectable="0" parent="m-pZPB-WIuNykrsNQO8W-93">
          <mxGeometry x="-0.16" relative="1" as="geometry">
            <mxPoint as="offset" />
          </mxGeometry>
        </mxCell>
        <mxCell id="m-pZPB-WIuNykrsNQO8W-94" value="物流信息" style="rounded=0;whiteSpace=wrap;html=1;" vertex="1" parent="1">
          <mxGeometry x="260" y="450" width="80" height="40" as="geometry" />
        </mxCell>
        <mxCell id="m-pZPB-WIuNykrsNQO8W-97" value="买家" style="rounded=0;whiteSpace=wrap;html=1;" vertex="1" parent="1">
          <mxGeometry x="260" y="620" width="80" height="40" as="geometry" />
        </mxCell>
        <mxCell id="m-pZPB-WIuNykrsNQO8W-98" value="" style="endArrow=none;html=1;rounded=0;exitX=0.5;exitY=0;exitDx=0;exitDy=0;entryX=0.5;entryY=1;entryDx=0;entryDy=0;" edge="1" parent="1" source="m-pZPB-WIuNykrsNQO8W-97" target="m-pZPB-WIuNykrsNQO8W-99">
          <mxGeometry width="50" height="50" relative="1" as="geometry">
            <mxPoint x="330" y="570" as="sourcePoint" />
            <mxPoint x="300" y="570" as="targetPoint" />
          </mxGeometry>
        </mxCell>
        <mxCell id="m-pZPB-WIuNykrsNQO8W-102" value="1" style="edgeLabel;html=1;align=center;verticalAlign=middle;resizable=0;points=[];" vertex="1" connectable="0" parent="m-pZPB-WIuNykrsNQO8W-98">
          <mxGeometry x="0.0571" y="4" relative="1" as="geometry">
            <mxPoint as="offset" />
          </mxGeometry>
        </mxCell>
        <mxCell id="m-pZPB-WIuNykrsNQO8W-99" value="更新" style="rhombus;whiteSpace=wrap;html=1;" vertex="1" parent="1">
          <mxGeometry x="260" y="540" width="80" height="40" as="geometry" />
        </mxCell>
        <mxCell id="m-pZPB-WIuNykrsNQO8W-101" value="" style="endArrow=none;html=1;rounded=0;exitX=0.5;exitY=0;exitDx=0;exitDy=0;entryX=0.5;entryY=1;entryDx=0;entryDy=0;" edge="1" parent="1" source="m-pZPB-WIuNykrsNQO8W-99" target="m-pZPB-WIuNykrsNQO8W-94">
          <mxGeometry width="50" height="50" relative="1" as="geometry">
            <mxPoint x="340" y="540" as="sourcePoint" />
            <mxPoint x="390" y="490" as="targetPoint" />
          </mxGeometry>
        </mxCell>
        <mxCell id="m-pZPB-WIuNykrsNQO8W-103" value="M" style="edgeLabel;html=1;align=center;verticalAlign=middle;resizable=0;points=[];" vertex="1" connectable="0" parent="m-pZPB-WIuNykrsNQO8W-101">
          <mxGeometry x="-0.1381" y="-3" relative="1" as="geometry">
            <mxPoint as="offset" />
          </mxGeometry>
        </mxCell>
        <mxCell id="m-pZPB-WIuNykrsNQO8W-104" value="客服" style="rounded=0;whiteSpace=wrap;html=1;" vertex="1" parent="1">
          <mxGeometry x="-20" y="250" width="80" height="40" as="geometry" />
        </mxCell>
        <mxCell id="m-pZPB-WIuNykrsNQO8W-106" value="" style="endArrow=none;html=1;rounded=0;exitX=0.5;exitY=0;exitDx=0;exitDy=0;entryX=0.5;entryY=1;entryDx=0;entryDy=0;" edge="1" parent="1" source="m-pZPB-WIuNykrsNQO8W-104" target="m-pZPB-WIuNykrsNQO8W-107">
          <mxGeometry width="50" height="50" relative="1" as="geometry">
            <mxPoint x="10" y="270" as="sourcePoint" />
            <mxPoint x="10" y="189.9999999999999" as="targetPoint" />
          </mxGeometry>
        </mxCell>
        <mxCell id="m-pZPB-WIuNykrsNQO8W-116" value="1" style="edgeLabel;html=1;align=center;verticalAlign=middle;resizable=0;points=[];" vertex="1" connectable="0" parent="m-pZPB-WIuNykrsNQO8W-106">
          <mxGeometry x="-0.1512" y="-2" relative="1" as="geometry">
            <mxPoint as="offset" />
          </mxGeometry>
        </mxCell>
        <mxCell id="m-pZPB-WIuNykrsNQO8W-107" value="被服务" style="rhombus;whiteSpace=wrap;html=1;" vertex="1" parent="1">
          <mxGeometry y="140" width="80" height="40" as="geometry" />
        </mxCell>
        <mxCell id="m-pZPB-WIuNykrsNQO8W-109" value="" style="endArrow=none;html=1;rounded=0;exitX=0.5;exitY=0;exitDx=0;exitDy=0;entryX=0.5;entryY=1;entryDx=0;entryDy=0;" edge="1" parent="1" source="m-pZPB-WIuNykrsNQO8W-107" target="m-pZPB-WIuNykrsNQO8W-1">
          <mxGeometry width="50" height="50" relative="1" as="geometry">
            <mxPoint x="-80" y="400" as="sourcePoint" />
            <mxPoint x="-30" y="350" as="targetPoint" />
          </mxGeometry>
        </mxCell>
        <mxCell id="m-pZPB-WIuNykrsNQO8W-128" value="1" style="edgeLabel;html=1;align=center;verticalAlign=middle;resizable=0;points=[];" vertex="1" connectable="0" parent="m-pZPB-WIuNykrsNQO8W-109">
          <mxGeometry x="-0.0107" y="-1" relative="1" as="geometry">
            <mxPoint as="offset" />
          </mxGeometry>
        </mxCell>
        <mxCell id="m-pZPB-WIuNykrsNQO8W-110" value="" style="endArrow=none;html=1;rounded=0;exitX=0.5;exitY=1;exitDx=0;exitDy=0;entryX=0.5;entryY=0;entryDx=0;entryDy=0;" edge="1" parent="1" source="m-pZPB-WIuNykrsNQO8W-104" target="m-pZPB-WIuNykrsNQO8W-112">
          <mxGeometry width="50" height="50" relative="1" as="geometry">
            <mxPoint x="-90" y="440" as="sourcePoint" />
            <mxPoint x="-120" y="310" as="targetPoint" />
          </mxGeometry>
        </mxCell>
        <mxCell id="m-pZPB-WIuNykrsNQO8W-114" value="1" style="edgeLabel;html=1;align=center;verticalAlign=middle;resizable=0;points=[];" vertex="1" connectable="0" parent="m-pZPB-WIuNykrsNQO8W-110">
          <mxGeometry x="-0.1743" y="5" relative="1" as="geometry">
            <mxPoint as="offset" />
          </mxGeometry>
        </mxCell>
        <mxCell id="m-pZPB-WIuNykrsNQO8W-112" value="处理" style="rhombus;whiteSpace=wrap;html=1;" vertex="1" parent="1">
          <mxGeometry x="-30" y="340" width="80" height="40" as="geometry" />
        </mxCell>
        <mxCell id="m-pZPB-WIuNykrsNQO8W-119" value="" style="endArrow=none;html=1;rounded=0;exitX=0.5;exitY=0;exitDx=0;exitDy=0;entryX=0.5;entryY=1;entryDx=0;entryDy=0;" edge="1" parent="1" source="m-pZPB-WIuNykrsNQO8W-89" target="m-pZPB-WIuNykrsNQO8W-112">
          <mxGeometry width="50" height="50" relative="1" as="geometry">
            <mxPoint x="-50" y="420" as="sourcePoint" />
            <mxPoint y="370" as="targetPoint" />
          </mxGeometry>
        </mxCell>
        <mxCell id="m-pZPB-WIuNykrsNQO8W-120" value="N" style="edgeLabel;html=1;align=center;verticalAlign=middle;resizable=0;points=[];" vertex="1" connectable="0" parent="m-pZPB-WIuNykrsNQO8W-119">
          <mxGeometry x="-0.0125" y="4" relative="1" as="geometry">
            <mxPoint as="offset" />
          </mxGeometry>
        </mxCell>
        <mxCell id="m-pZPB-WIuNykrsNQO8W-123" value="" style="endArrow=none;html=1;rounded=0;exitX=0.5;exitY=0;exitDx=0;exitDy=0;" edge="1" parent="1" source="m-pZPB-WIuNykrsNQO8W-91">
          <mxGeometry width="50" height="50" relative="1" as="geometry">
            <mxPoint x="60" y="560" as="sourcePoint" />
            <mxPoint x="300" y="290" as="targetPoint" />
          </mxGeometry>
        </mxCell>
        <mxCell id="m-pZPB-WIuNykrsNQO8W-124" value="1" style="edgeLabel;html=1;align=center;verticalAlign=middle;resizable=0;points=[];" vertex="1" connectable="0" parent="m-pZPB-WIuNykrsNQO8W-123">
          <mxGeometry x="-0.0327" y="1" relative="1" as="geometry">
            <mxPoint as="offset" />
          </mxGeometry>
        </mxCell>
      </root>
    </mxGraphModel>
  </diagram>
</mxfile>
